<svg xmlns="http://www.w3.org/2000/svg" viewBox="0 0 24 24" fill="#000000">
  <path d="M21.25,7.5C21.63,7.5,21.94,7.78,21.99,8.15L22,8.25V16.75C22,18.48,20.64,19.9,18.93,19.99L18.75,20H6.06l.72.72a.75.75,0,0,1-1.06,1.06L3.72,19.78a.75.75,0,0,1,0-1.06l2-2a.75.75,0,0,1,1.06,1.06L6.06,18.5H18.75A1.75,1.75,0,0,0,20.5,16.75V8.25A.75.75,0,0,1,21.25,7.5ZM18.2,2.15l2,2a.75.75,0,0,1,0,1.06l-2,2a.75.75,0,0,1-1.06-1.06L17.94,5.5H5.25A1.75,1.75,0,0,0,3.5,7.25v8.5a.75.75,0,0,1-1.5,0V7.25A3.25,3.25,0,0,1,5.25,4H17.94L17.22,3.28a.75.75,0,1,1,1.06-1.13ZM12,8A4,4,0,1,1,8,12,4,4,0,0,1,12,8Zm0,1.5A2.5,2.5,0,1,0,14.5,12,2.5,2.5,0,0,0,12,9.5Z"/>
</svg>
