<svg viewBox="0 0 64 64" xmlns="http://www.w3.org/2000/svg">
  <g transform="translate(-4.8, -4.8) scale(1.2)" fill="#000000">
    
    <path d="M12,13 C12,12.4,12.4,12,13,12 L51.4,12 C50.7,10.8,49.5,10,48,10 L30,10 C28,10,27.5,9.3,26.8,8.4 C26,7.3,25,6,22,6 L12,6 C9.8,6,8,7.8,8,10 L8,38 C8,40.2,9.8,42,12,42 L12,13 Z"/>
    
    <path d="M56,15 L56,38 C56,40.2,54.2,42,52,42 L14,42 L14,14 L52,14 C52.6,14,53,14.4,53,15 Z M30,22 L30,34 L42,28 Z"/>
    
    <path d="M30,42 L36,42 L36,46 L39,46 C40.1,46,41,46.9,41,48 L41,54 C41,55.1,40.1,56,39,56 L27,56 C25.9,56,25,55.1,25,54 L25,48 C25,46.9,25.9,46,27,46 L30,46 L30,42 Z"/>
    <path d="M24,48 L4,48 L4,53 C4,54.1,4.9,55,6,55 L24,55 L24,48 Z"/>
    <path d="M42,48 L62,48 L62,53 C62,54.1,61.1,55,60,55 L42,55 L42,48 Z"/>
  </g>
</svg>
